<svg xmlns="http://www.w3.org/2000/svg" xmlns:xlink="http://www.w3.org/1999/xlink" width="500" zoomAndPan="magnify" viewBox="0 0 375 374.999991" height="500" preserveAspectRatio="xMidYMid meet" version="1.0"><path fill="#fff" d="M 276.3125 217.519531 C 270.578125 219.65625 264.359375 221.550781 257.746094 223.199219 C 254.273438 211.691406 249.695312 199.671875 244.136719 187.5 C 249.695312 175.339844 254.273438 163.308594 257.746094 151.800781 C 264.359375 153.449219 270.578125 155.34375 276.3125 157.46875 C 278.332031 158.21875 280.261719 158.988281 282.105469 159.773438 C 281.992188 160.476562 281.921875 161.191406 281.921875 161.921875 C 281.921875 169.492188 288.050781 175.613281 295.609375 175.613281 C 298.660156 175.613281 301.457031 174.605469 303.738281 172.921875 C 308.695312 177.632812 311.339844 182.578125 311.339844 187.5 C 311.339844 198.355469 298.578125 209.300781 276.3125 217.519531 Z M 256.960938 250.46875 C 257.003906 250.71875 257.023438 250.957031 257.066406 251.195312 C 251.890625 253.144531 248.203125 258.132812 248.203125 263.992188 C 248.203125 270.121094 252.214844 275.304688 257.773438 277.050781 C 256.449219 286.269531 253.0625 292.722656 247.773438 295.679688 C 245.488281 296.949219 242.816406 297.601562 239.84375 297.601562 C 228.785156 297.601562 213.765625 288.992188 197.546875 273.382812 C 195.789062 271.699219 194.054688 269.925781 192.296875 268.109375 C 200.492188 259.035156 208.667969 248.519531 216.507812 236.878906 C 229.320312 235.785156 241.554688 233.976562 252.878906 231.5 C 254.640625 238.0625 256.027344 244.421875 256.960938 250.46875 Z M 177.453125 273.382812 C 161.21875 288.992188 146.207031 297.601562 135.148438 297.601562 C 132.167969 297.601562 129.503906 296.949219 127.226562 295.679688 C 120.136719 291.726562 116.476562 281.53125 116.59375 266.855469 C 122.976562 265.683594 127.800781 260.109375 127.800781 253.398438 C 127.800781 247.878906 124.53125 243.132812 119.800781 240.964844 C 120.480469 237.867188 121.257812 234.710938 122.128906 231.5 C 133.429688 233.976562 145.660156 235.785156 158.476562 236.878906 C 166.324219 248.519531 174.5 259.035156 182.683594 268.109375 C 180.9375 269.925781 179.191406 271.699219 177.453125 273.382812 Z M 98.671875 217.519531 C 76.421875 209.300781 63.664062 198.355469 63.664062 187.5 C 63.664062 176.652344 76.421875 165.707031 98.671875 157.46875 C 104.414062 155.34375 110.65625 153.449219 117.234375 151.800781 C 120.703125 163.308594 125.304688 175.339844 130.863281 187.5 C 125.304688 199.671875 120.703125 211.691406 117.234375 223.199219 C 110.65625 221.550781 104.414062 219.65625 98.671875 217.519531 Z M 118.03125 124.53125 C 117.914062 123.726562 117.792969 122.933594 117.6875 122.148438 C 123.515625 120.570312 127.800781 115.269531 127.800781 108.945312 C 127.800781 102.585938 123.472656 97.269531 117.597656 95.707031 C 119.113281 87.699219 122.359375 82.035156 127.226562 79.324219 C 129.503906 78.054688 132.167969 77.402344 135.148438 77.402344 C 146.207031 77.402344 161.21875 86.007812 177.453125 101.625 C 179.191406 103.308594 180.9375 105.074219 182.683594 106.910156 C 174.5 115.984375 166.324219 126.480469 158.476562 138.136719 C 145.660156 139.222656 133.429688 141.03125 122.128906 143.5 C 120.347656 136.9375 118.972656 130.589844 118.03125 124.53125 Z M 231.683594 162.886719 C 228.359375 156.90625 224.910156 151.136719 221.402344 145.589844 C 231.765625 146.65625 241.675781 148.210938 250.9375 150.21875 C 248.105469 159.578125 244.480469 169.304688 240.222656 179.183594 C 237.550781 173.75 234.710938 168.308594 231.683594 162.886719 Z M 167.425781 137.503906 C 173.917969 128.242188 180.671875 119.671875 187.492188 112.066406 C 194.316406 119.671875 201.082031 128.242188 207.574219 137.503906 C 200.984375 137.125 194.28125 136.921875 187.492188 136.921875 C 180.710938 136.921875 173.996094 137.125 167.425781 137.503906 Z M 134.777344 179.183594 C 130.5 169.304688 126.894531 159.578125 124.054688 150.21875 C 133.332031 148.210938 143.234375 146.65625 153.605469 145.589844 C 150.078125 151.136719 146.640625 156.90625 143.304688 162.886719 C 140.289062 168.308594 137.449219 173.75 134.777344 179.183594 Z M 153.605469 229.410156 C 143.234375 228.34375 133.332031 226.800781 124.054688 224.796875 C 126.894531 215.421875 130.5 205.703125 134.777344 195.824219 C 137.449219 201.257812 140.289062 206.699219 143.304688 212.125 C 146.640625 218.09375 150.078125 223.863281 153.605469 229.410156 Z M 207.574219 237.507812 C 201.082031 246.765625 194.316406 255.339844 187.492188 262.941406 C 180.671875 255.339844 173.917969 246.765625 167.425781 237.507812 C 173.996094 237.886719 180.710938 238.078125 187.492188 238.078125 C 194.28125 238.078125 200.984375 237.886719 207.574219 237.507812 Z M 240.222656 195.824219 C 244.480469 205.703125 248.105469 215.421875 250.9375 224.796875 C 241.675781 226.800781 231.765625 228.34375 221.402344 229.410156 C 224.910156 223.863281 228.359375 218.09375 231.683594 212.125 C 234.710938 206.699219 237.550781 201.257812 240.222656 195.824219 Z M 225.582031 208.738281 C 221.453125 216.128906 217.070312 223.316406 212.546875 230.195312 C 204.398438 230.804688 196.011719 231.113281 187.492188 231.113281 C 178.972656 231.113281 170.601562 230.804688 162.453125 230.195312 C 157.910156 223.316406 153.527344 216.128906 149.398438 208.738281 C 145.476562 201.664062 141.832031 194.5625 138.542969 187.5 C 141.832031 180.453125 145.476562 173.34375 149.398438 166.28125 C 153.527344 158.871094 157.917969 151.683594 162.453125 144.824219 C 170.601562 144.214844 178.972656 143.898438 187.492188 143.898438 C 196.011719 143.898438 204.398438 144.214844 212.546875 144.824219 C 217.070312 151.683594 221.453125 158.871094 225.582031 166.28125 C 229.523438 173.34375 233.148438 180.453125 236.457031 187.5 C 233.148438 194.5625 229.523438 201.664062 225.582031 208.738281 Z M 197.546875 101.625 C 213.765625 86.007812 228.785156 77.402344 239.851562 77.402344 C 242.816406 77.402344 245.488281 78.054688 247.773438 79.324219 C 257.261719 84.613281 260.585938 101.078125 256.960938 124.53125 C 256.027344 130.589844 254.640625 136.9375 252.878906 143.5 C 241.554688 141.03125 229.320312 139.222656 216.507812 138.136719 C 208.667969 126.480469 200.492188 115.984375 192.296875 106.910156 C 194.054688 105.074219 195.789062 103.308594 197.546875 101.625 Z M 308.113281 167.480469 C 308.882812 165.777344 309.304688 163.90625 309.304688 161.921875 C 309.304688 154.367188 303.175781 148.234375 295.609375 148.234375 C 291.285156 148.234375 287.421875 150.246094 284.917969 153.394531 C 282.941406 152.539062 280.878906 151.730469 278.738281 150.933594 C 272.828125 148.738281 266.441406 146.796875 259.652344 145.085938 C 261.460938 138.359375 262.878906 131.824219 263.859375 125.597656 C 268.03125 98.714844 263.53125 80.121094 251.167969 73.226562 C 247.824219 71.367188 244.015625 70.425781 239.851562 70.425781 C 225.160156 70.425781 206.445312 82.097656 187.492188 101.757812 C 168.554688 82.097656 149.824219 70.425781 135.148438 70.425781 C 130.984375 70.425781 127.15625 71.367188 123.824219 73.226562 C 116.796875 77.15625 112.304688 84.867188 110.507812 95.753906 C 104.695312 97.332031 100.417969 102.632812 100.417969 108.945312 C 100.417969 115.3125 104.765625 120.648438 110.65625 122.183594 C 110.796875 123.292969 110.957031 124.441406 111.132812 125.597656 C 112.101562 131.824219 113.515625 138.359375 115.332031 145.085938 C 108.558594 146.796875 102.171875 148.738281 96.253906 150.933594 C 70.746094 160.371094 56.683594 173.355469 56.683594 187.5 C 56.683594 201.644531 70.746094 214.636719 96.253906 224.074219 C 102.171875 226.261719 108.558594 228.210938 115.332031 229.914062 C 114.441406 233.246094 113.628906 236.542969 112.941406 239.761719 C 105.921875 240.371094 100.417969 246.238281 100.417969 253.398438 C 100.417969 259.394531 104.261719 264.476562 109.632812 266.335938 C 109.394531 284.097656 114.253906 296.453125 123.824219 301.78125 C 127.15625 303.632812 130.984375 304.578125 135.148438 304.578125 C 149.824219 304.578125 168.554688 292.902344 187.492188 273.257812 C 206.445312 292.902344 225.160156 304.578125 239.84375 304.578125 C 244.015625 304.578125 247.824219 303.632812 251.167969 301.78125 C 258.601562 297.636719 263.179688 289.25 264.757812 277.378906 C 270.941406 276.0625 275.597656 270.5625 275.597656 263.992188 C 275.597656 257.164062 270.5625 251.503906 264.015625 250.488281 C 263.957031 250.125 263.894531 249.773438 263.859375 249.402344 C 262.878906 243.175781 261.460938 236.640625 259.652344 229.914062 C 266.433594 228.210938 272.828125 226.261719 278.738281 224.074219 C 304.269531 214.636719 318.316406 201.644531 318.316406 187.5 C 318.316406 180.4375 314.800781 173.664062 308.113281 167.480469 " fill-opacity="1" fill-rule="nonzero"/><path fill="#fff" d="M 187.492188 167.152344 C 176.265625 167.152344 167.144531 176.265625 167.144531 187.5 C 167.144531 198.734375 176.265625 207.855469 187.492188 207.855469 C 198.746094 207.855469 207.835938 198.734375 207.835938 187.5 C 207.835938 176.265625 198.746094 167.152344 187.492188 167.152344 " fill-opacity="1" fill-rule="nonzero"/></svg>