<svg xmlns="http://www.w3.org/2000/svg" xmlns:xlink="http://www.w3.org/1999/xlink" width="500" zoomAndPan="magnify" viewBox="0 0 375 374.999991" height="500" preserveAspectRatio="xMidYMid meet" version="1.0"><defs><g/></defs><rect x="-37.5" width="450" fill="#1a263d" y="-37.499999" height="449.999989" fill-opacity="1"/><path fill="#10b981" d="M 238.695312 169.644531 C 235.394531 170.875 231.8125 171.964844 228.003906 172.917969 C 226 166.285156 223.363281 159.363281 220.164062 152.351562 C 223.363281 145.347656 226 138.417969 228.003906 131.789062 C 231.8125 132.738281 235.394531 133.832031 238.695312 135.054688 C 239.859375 135.488281 240.972656 135.929688 242.035156 136.382812 C 241.96875 136.789062 241.925781 137.199219 241.925781 137.621094 C 241.925781 141.980469 245.457031 145.503906 249.8125 145.503906 C 251.570312 145.503906 253.179688 144.925781 254.496094 143.957031 C 257.351562 146.667969 258.875 149.519531 258.875 152.351562 C 258.875 158.605469 251.523438 164.910156 238.695312 169.644531 Z M 227.550781 188.625 C 227.574219 188.765625 227.585938 188.902344 227.613281 189.039062 C 224.628906 190.164062 222.507812 193.039062 222.507812 196.410156 C 222.507812 199.941406 224.816406 202.929688 228.019531 203.933594 C 227.257812 209.242188 225.304688 212.960938 222.257812 214.664062 C 220.941406 215.394531 219.402344 215.769531 217.691406 215.769531 C 211.320312 215.769531 202.667969 210.8125 193.328125 201.820312 C 192.316406 200.851562 191.316406 199.828125 190.304688 198.785156 C 195.023438 193.554688 199.734375 187.5 204.25 180.796875 C 211.628906 180.164062 218.675781 179.125 225.199219 177.695312 C 226.214844 181.476562 227.011719 185.140625 227.550781 188.625 Z M 181.753906 201.820312 C 172.402344 210.8125 163.757812 215.769531 157.386719 215.769531 C 155.667969 215.769531 154.136719 215.394531 152.824219 214.664062 C 148.738281 212.386719 146.632812 206.515625 146.699219 198.0625 C 150.375 197.386719 153.15625 194.175781 153.15625 190.308594 C 153.15625 187.128906 151.269531 184.398438 148.546875 183.148438 C 148.9375 181.363281 149.386719 179.546875 149.886719 177.695312 C 156.394531 179.125 163.441406 180.164062 170.824219 180.796875 C 175.34375 187.5 180.054688 193.554688 184.765625 198.785156 C 183.761719 199.828125 182.753906 200.851562 181.753906 201.820312 Z M 136.375 169.644531 C 123.558594 164.910156 116.210938 158.605469 116.210938 152.351562 C 116.210938 146.105469 123.558594 139.800781 136.375 135.054688 C 139.683594 133.832031 143.277344 132.738281 147.070312 131.789062 C 149.066406 138.417969 151.71875 145.347656 154.917969 152.351562 C 151.71875 159.363281 149.066406 166.285156 147.070312 172.917969 C 143.277344 171.964844 139.683594 170.875 136.375 169.644531 Z M 147.527344 116.082031 C 147.460938 115.621094 147.390625 115.164062 147.328125 114.710938 C 150.6875 113.800781 153.15625 110.746094 153.15625 107.105469 C 153.15625 103.441406 150.660156 100.378906 147.277344 99.480469 C 148.152344 94.867188 150.019531 91.605469 152.824219 90.042969 C 154.136719 89.3125 155.667969 88.933594 157.386719 88.933594 C 163.757812 88.933594 172.402344 93.894531 181.753906 102.890625 C 182.753906 103.859375 183.761719 104.875 184.765625 105.933594 C 180.054688 111.160156 175.34375 117.203125 170.824219 123.921875 C 163.441406 124.542969 156.394531 125.585938 149.886719 127.007812 C 148.863281 123.230469 148.070312 119.570312 147.527344 116.082031 Z M 212.992188 138.175781 C 211.078125 134.730469 209.089844 131.40625 207.066406 128.210938 C 213.039062 128.828125 218.746094 129.722656 224.082031 130.878906 C 222.449219 136.269531 220.363281 141.871094 217.910156 147.5625 C 216.371094 144.433594 214.734375 141.296875 212.992188 138.175781 Z M 175.980469 123.554688 C 179.71875 118.21875 183.609375 113.28125 187.535156 108.902344 C 191.46875 113.28125 195.363281 118.21875 199.101562 123.554688 C 195.308594 123.335938 191.449219 123.21875 187.535156 123.21875 C 183.628906 123.21875 179.761719 123.335938 175.980469 123.554688 Z M 157.171875 147.5625 C 154.710938 141.871094 152.632812 136.269531 150.996094 130.878906 C 156.339844 129.722656 162.042969 128.828125 168.019531 128.210938 C 165.988281 131.40625 164.003906 134.730469 162.085938 138.175781 C 160.347656 141.296875 158.710938 144.433594 157.171875 147.5625 Z M 168.019531 176.492188 C 162.042969 175.878906 156.339844 174.988281 150.996094 173.835938 C 152.632812 168.4375 154.710938 162.835938 157.171875 157.148438 C 158.710938 160.277344 160.347656 163.410156 162.085938 166.535156 C 164.003906 169.976562 165.988281 173.296875 168.019531 176.492188 Z M 199.101562 181.15625 C 195.363281 186.488281 191.46875 191.425781 187.535156 195.804688 C 183.609375 191.425781 179.71875 186.488281 175.980469 181.15625 C 179.761719 181.375 183.628906 181.484375 187.535156 181.484375 C 191.449219 181.484375 195.308594 181.375 199.101562 181.15625 Z M 217.910156 157.148438 C 220.363281 162.835938 222.449219 168.4375 224.082031 173.835938 C 218.746094 174.988281 213.039062 175.878906 207.066406 176.492188 C 209.089844 173.296875 211.078125 169.976562 212.992188 166.535156 C 214.734375 163.410156 216.371094 160.277344 217.910156 157.148438 Z M 209.476562 164.585938 C 207.097656 168.84375 204.574219 172.980469 201.96875 176.945312 C 197.273438 177.296875 192.441406 177.472656 187.535156 177.472656 C 182.628906 177.472656 177.808594 177.296875 173.113281 176.945312 C 170.496094 172.980469 167.972656 168.84375 165.59375 164.585938 C 163.335938 160.511719 161.238281 156.421875 159.34375 152.351562 C 161.238281 148.292969 163.335938 144.199219 165.59375 140.128906 C 167.972656 135.863281 170.503906 131.722656 173.113281 127.769531 C 177.808594 127.421875 182.628906 127.238281 187.535156 127.238281 C 192.441406 127.238281 197.273438 127.421875 201.96875 127.769531 C 204.574219 131.722656 207.097656 135.863281 209.476562 140.128906 C 211.746094 144.199219 213.835938 148.292969 215.738281 152.351562 C 213.835938 156.421875 211.746094 160.511719 209.476562 164.585938 Z M 193.328125 102.890625 C 202.667969 93.894531 211.320312 88.933594 217.695312 88.933594 C 219.402344 88.933594 220.941406 89.3125 222.257812 90.042969 C 227.722656 93.089844 229.636719 102.574219 227.550781 116.082031 C 227.011719 119.570312 226.214844 123.230469 225.199219 127.007812 C 218.675781 125.585938 211.628906 124.542969 204.25 123.921875 C 199.734375 117.203125 195.023438 111.160156 190.304688 105.933594 C 191.316406 104.875 192.316406 103.859375 193.328125 102.890625 Z M 257.015625 140.820312 C 257.457031 139.839844 257.699219 138.765625 257.699219 137.621094 C 257.699219 133.265625 254.167969 129.738281 249.8125 129.738281 C 247.320312 129.738281 245.097656 130.894531 243.652344 132.707031 C 242.515625 132.214844 241.328125 131.75 240.09375 131.292969 C 236.6875 130.027344 233.011719 128.910156 229.101562 127.921875 C 230.140625 124.046875 230.960938 120.28125 231.523438 116.695312 C 233.925781 101.210938 231.335938 90.503906 224.214844 86.53125 C 222.289062 85.460938 220.09375 84.917969 217.695312 84.917969 C 209.230469 84.917969 198.453125 91.640625 187.535156 102.964844 C 176.628906 91.640625 165.839844 84.917969 157.386719 84.917969 C 154.988281 84.917969 152.785156 85.460938 150.863281 86.53125 C 146.816406 88.792969 144.230469 93.234375 143.191406 99.503906 C 139.84375 100.414062 137.382812 103.46875 137.382812 107.105469 C 137.382812 110.773438 139.886719 113.847656 143.277344 114.730469 C 143.359375 115.371094 143.453125 116.03125 143.554688 116.695312 C 144.113281 120.28125 144.925781 124.046875 145.972656 127.921875 C 142.070312 128.910156 138.390625 130.027344 134.984375 131.292969 C 120.289062 136.726562 112.191406 144.203125 112.191406 152.351562 C 112.191406 160.5 120.289062 167.984375 134.984375 173.417969 C 138.390625 174.679688 142.070312 175.800781 145.972656 176.78125 C 145.457031 178.703125 144.992188 180.601562 144.59375 182.457031 C 140.550781 182.808594 137.382812 186.183594 137.382812 190.308594 C 137.382812 193.765625 139.597656 196.691406 142.691406 197.761719 C 142.550781 207.992188 145.351562 215.109375 150.863281 218.179688 C 152.785156 219.246094 154.988281 219.789062 157.386719 219.789062 C 165.839844 219.789062 176.628906 213.0625 187.535156 201.75 C 198.453125 213.0625 209.230469 219.789062 217.691406 219.789062 C 220.09375 219.789062 222.289062 219.246094 224.214844 218.179688 C 228.496094 215.792969 231.132812 210.960938 232.042969 204.121094 C 235.601562 203.367188 238.285156 200.195312 238.285156 196.410156 C 238.285156 192.480469 235.382812 189.21875 231.613281 188.632812 C 231.578125 188.425781 231.542969 188.222656 231.523438 188.007812 C 230.960938 184.421875 230.140625 180.65625 229.101562 176.78125 C 233.007812 175.800781 236.6875 174.679688 240.09375 173.417969 C 254.800781 167.984375 262.890625 160.5 262.890625 152.351562 C 262.890625 148.285156 260.863281 144.382812 257.015625 140.820312 " fill-opacity="1" fill-rule="nonzero"/><path fill="#10b981" d="M 187.535156 140.632812 C 181.070312 140.632812 175.816406 145.878906 175.816406 152.351562 C 175.816406 158.824219 181.070312 164.078125 187.535156 164.078125 C 194.019531 164.078125 199.253906 158.824219 199.253906 152.351562 C 199.253906 145.878906 194.019531 140.632812 187.535156 140.632812 " fill-opacity="1" fill-rule="nonzero"/><g fill="#ffffe8" fill-opacity="1"><g transform="translate(30.060442, 295.895899)"><g><path d="M 37.359375 -37.953125 L 39.671875 -37.953125 C 40.210938 -37.953125 40.484375 -37.679688 40.484375 -37.140625 L 42.140625 0 L 40.765625 0 L 39.109375 -36.75 L 37.796875 -36.75 L 25.359375 -3.796875 C 25.253906 -3.460938 25.015625 -3.296875 24.640625 -3.296875 L 22.34375 -3.296875 C 21.96875 -3.296875 21.726562 -3.460938 21.625 -3.796875 L 9.1875 -36.75 L 7.875 -36.75 L 6.21875 0 L 4.84375 0 L 6.484375 -37.140625 C 6.484375 -37.679688 6.757812 -37.953125 7.3125 -37.953125 L 9.625 -37.953125 C 9.988281 -37.953125 10.226562 -37.789062 10.34375 -37.46875 L 20.84375 -9.6875 C 21.070312 -9.09375 21.394531 -8.226562 21.8125 -7.09375 C 22.238281 -5.957031 22.5625 -5.097656 22.78125 -4.515625 L 24.203125 -4.515625 L 26.1875 -9.796875 L 36.640625 -37.46875 C 36.753906 -37.789062 36.992188 -37.953125 37.359375 -37.953125 Z M 37.359375 -37.953125 "/></g></g></g><g fill="#ffffe8" fill-opacity="1"><g transform="translate(78.687535, 295.895899)"><g><path d="M 31.296875 -37.953125 L 31.296875 -14.03125 C 31.296875 -8.707031 30.316406 -4.925781 28.359375 -2.6875 C 26.398438 -0.457031 23.070312 0.65625 18.375 0.65625 C 13.644531 0.65625 10.296875 -0.457031 8.328125 -2.6875 C 6.367188 -4.925781 5.390625 -8.707031 5.390625 -14.03125 L 5.390625 -37.953125 L 6.765625 -37.953125 L 6.765625 -14.03125 C 6.765625 -9.113281 7.632812 -5.644531 9.375 -3.625 C 11.125 -1.613281 14.125 -0.609375 18.375 -0.609375 C 22.59375 -0.609375 25.570312 -1.613281 27.3125 -3.625 C 29.050781 -5.644531 29.921875 -9.113281 29.921875 -14.03125 L 29.921875 -37.953125 Z M 31.296875 -37.953125 "/></g></g></g><g fill="#ffffe8" fill-opacity="1"><g transform="translate(117.028175, 295.895899)"><g><path d="M 30.15625 0 L 28.609375 0 L 24.53125 -12 C 23.363281 -15.375 21.289062 -17.0625 18.3125 -17.0625 C 13.289062 -17.0625 9.535156 -17.132812 7.046875 -17.28125 L 7.046875 0 L 5.671875 0 L 5.671875 -37.953125 C 8.597656 -38.253906 12.648438 -38.40625 17.828125 -38.40625 C 21.929688 -38.40625 24.78125 -37.660156 26.375 -36.171875 C 27.96875 -34.679688 28.765625 -31.867188 28.765625 -27.734375 C 28.765625 -24.359375 28.222656 -21.914062 27.140625 -20.40625 C 26.066406 -18.90625 24.28125 -17.972656 21.78125 -17.609375 L 21.78125 -17.390625 C 23.539062 -16.835938 24.9375 -15.09375 25.96875 -12.15625 Z M 7.046875 -18.3125 L 17.828125 -18.3125 C 21.378906 -18.394531 23.851562 -19.085938 25.25 -20.390625 C 26.644531 -21.691406 27.34375 -24.140625 27.34375 -27.734375 C 27.34375 -31.398438 26.644531 -33.882812 25.25 -35.1875 C 23.851562 -36.488281 21.378906 -37.140625 17.828125 -37.140625 C 13.128906 -37.140625 9.535156 -37.101562 7.046875 -37.03125 Z M 7.046875 -18.3125 "/></g></g></g><g fill="#ffffe8" fill-opacity="1"><g transform="translate(152.068334, 295.895899)"><g><path d="M 25.640625 -13.859375 L 7.53125 -13.859375 L 2.53125 0 L 1.046875 0 L 14.6875 -37.46875 C 14.800781 -37.789062 15.039062 -37.953125 15.40625 -37.953125 L 17.765625 -37.953125 C 18.128906 -37.953125 18.367188 -37.789062 18.484375 -37.46875 L 32.125 0 L 30.640625 0 Z M 25.203125 -15.078125 L 18.484375 -33.671875 L 17.390625 -36.75 L 15.796875 -36.75 L 14.6875 -33.671875 L 7.984375 -15.078125 Z M 25.203125 -15.078125 "/></g></g></g><g fill="#ffffe8" fill-opacity="1"><g transform="translate(186.888468, 295.895899)"><g><path d="M 25.640625 -13.859375 L 7.53125 -13.859375 L 2.53125 0 L 1.046875 0 L 14.6875 -37.46875 C 14.800781 -37.789062 15.039062 -37.953125 15.40625 -37.953125 L 17.765625 -37.953125 C 18.128906 -37.953125 18.367188 -37.789062 18.484375 -37.46875 L 32.125 0 L 30.640625 0 Z M 25.203125 -15.078125 L 18.484375 -33.671875 L 17.390625 -36.75 L 15.796875 -36.75 L 14.6875 -33.671875 L 7.984375 -15.078125 Z M 25.203125 -15.078125 "/></g></g></g><g fill="#ffffe8" fill-opacity="1"><g transform="translate(221.708603, 295.895899)"><g><path d="M 12.328125 -37.953125 L 12.328125 -6.328125 C 12.328125 -1.847656 10.085938 0.367188 5.609375 0.328125 C 4.585938 0.328125 3.414062 0.21875 2.09375 0 L 2.25 -0.875 L 5.453125 -0.875 C 9.117188 -0.875 10.953125 -2.707031 10.953125 -6.375 L 10.953125 -37.953125 Z M 12.328125 -37.953125 "/></g></g></g><g fill="#ffffe8" fill-opacity="1"><g transform="translate(241.181559, 295.895899)"><g><path d="M 25.640625 -13.859375 L 7.53125 -13.859375 L 2.53125 0 L 1.046875 0 L 14.6875 -37.46875 C 14.800781 -37.789062 15.039062 -37.953125 15.40625 -37.953125 L 17.765625 -37.953125 C 18.128906 -37.953125 18.367188 -37.789062 18.484375 -37.46875 L 32.125 0 L 30.640625 0 Z M 25.203125 -15.078125 L 18.484375 -33.671875 L 17.390625 -36.75 L 15.796875 -36.75 L 14.6875 -33.671875 L 7.984375 -15.078125 Z M 25.203125 -15.078125 "/></g></g></g><g fill="#ffffe8" fill-opacity="1"><g transform="translate(276.001693, 295.895899)"><g><path d="M 28.21875 -1.328125 L 28.546875 -0.328125 C 25.648438 0.328125 22.203125 0.65625 18.203125 0.65625 C 12.992188 0.65625 9.351562 -0.800781 7.28125 -3.71875 C 5.21875 -6.632812 4.1875 -11.722656 4.1875 -18.984375 C 4.1875 -26.242188 5.21875 -31.332031 7.28125 -34.25 C 9.351562 -37.164062 12.992188 -38.625 18.203125 -38.625 C 21.878906 -38.625 25.070312 -38.3125 27.78125 -37.6875 L 27.453125 -36.703125 C 24.703125 -37.140625 21.617188 -37.359375 18.203125 -37.359375 C 13.515625 -37.359375 10.242188 -36 8.390625 -33.28125 C 6.535156 -30.570312 5.609375 -25.804688 5.609375 -18.984375 C 5.609375 -12.160156 6.535156 -7.390625 8.390625 -4.671875 C 10.242188 -1.960938 13.515625 -0.609375 18.203125 -0.609375 C 22.128906 -0.609375 25.46875 -0.847656 28.21875 -1.328125 Z M 28.21875 -1.328125 "/></g></g></g><g fill="#ffffe8" fill-opacity="1"><g transform="translate(308.511495, 295.895899)"><g><path d="M 7.28125 -34.25 C 9.351562 -37.164062 12.992188 -38.625 18.203125 -38.625 C 23.410156 -38.625 27.050781 -37.164062 29.125 -34.25 C 31.195312 -31.332031 32.234375 -26.242188 32.234375 -18.984375 C 32.234375 -11.722656 31.195312 -6.632812 29.125 -3.71875 C 27.050781 -0.800781 23.410156 0.65625 18.203125 0.65625 C 12.992188 0.65625 9.351562 -0.800781 7.28125 -3.71875 C 5.21875 -6.632812 4.1875 -11.722656 4.1875 -18.984375 C 4.1875 -26.242188 5.21875 -31.332031 7.28125 -34.25 Z M 28.03125 -33.28125 C 26.175781 -36 22.898438 -37.359375 18.203125 -37.359375 C 13.515625 -37.359375 10.242188 -36 8.390625 -33.28125 C 6.535156 -30.570312 5.609375 -25.804688 5.609375 -18.984375 C 5.609375 -12.160156 6.535156 -7.390625 8.390625 -4.671875 C 10.242188 -1.960938 13.515625 -0.609375 18.203125 -0.609375 C 22.898438 -0.609375 26.175781 -1.960938 28.03125 -4.671875 C 29.882812 -7.390625 30.8125 -12.160156 30.8125 -18.984375 C 30.8125 -25.804688 29.882812 -30.570312 28.03125 -33.28125 Z M 28.03125 -33.28125 "/></g></g></g></svg>