<svg xmlns="http://www.w3.org/2000/svg" xmlns:xlink="http://www.w3.org/1999/xlink" width="500" zoomAndPan="magnify" viewBox="0 0 375 374.999991" height="500" preserveAspectRatio="xMidYMid meet" version="1.0"><defs><g/></defs><rect x="-37.5" width="450" fill="#1a263d" y="-37.499999" height="449.999989" fill-opacity="1"/><path fill="#10b981" d="M 242.246094 166.242188 C 238.714844 167.558594 234.882812 168.726562 230.808594 169.742188 C 228.667969 162.652344 225.847656 155.246094 222.425781 147.75 C 225.847656 140.257812 228.667969 132.847656 230.808594 125.757812 C 234.882812 126.773438 238.714844 127.941406 242.246094 129.25 C 243.488281 129.714844 244.679688 130.1875 245.816406 130.667969 C 245.742188 131.105469 245.699219 131.542969 245.699219 131.996094 C 245.699219 136.65625 249.476562 140.425781 254.132812 140.425781 C 256.011719 140.425781 257.734375 139.808594 259.140625 138.769531 C 262.195312 141.671875 263.824219 144.71875 263.824219 147.75 C 263.824219 154.4375 255.964844 161.179688 242.246094 166.242188 Z M 230.324219 186.539062 C 230.351562 186.691406 230.363281 186.839844 230.390625 186.984375 C 227.203125 188.1875 224.929688 191.261719 224.929688 194.867188 C 224.929688 198.644531 227.402344 201.839844 230.824219 202.914062 C 230.011719 208.589844 227.925781 212.566406 224.664062 214.386719 C 223.257812 215.171875 221.613281 215.574219 219.78125 215.574219 C 212.96875 215.574219 203.714844 210.269531 193.726562 200.652344 C 192.644531 199.617188 191.574219 198.523438 190.492188 197.40625 C 195.539062 191.816406 200.578125 185.339844 205.40625 178.167969 C 213.300781 177.496094 220.835938 176.378906 227.8125 174.855469 C 228.898438 178.894531 229.75 182.8125 230.324219 186.539062 Z M 181.351562 200.652344 C 171.347656 210.269531 162.101562 215.574219 155.289062 215.574219 C 153.453125 215.574219 151.8125 215.171875 150.410156 214.386719 C 146.042969 211.953125 143.789062 205.675781 143.859375 196.632812 C 147.792969 195.910156 150.761719 192.476562 150.761719 188.34375 C 150.761719 184.941406 148.746094 182.019531 145.835938 180.683594 C 146.253906 178.777344 146.730469 176.832031 147.269531 174.855469 C 154.230469 176.378906 161.765625 177.496094 169.660156 178.167969 C 174.492188 185.339844 179.53125 191.816406 184.570312 197.40625 C 183.496094 198.523438 182.421875 199.617188 181.351562 200.652344 Z M 132.820312 166.242188 C 119.113281 161.179688 111.253906 154.4375 111.253906 147.75 C 111.253906 141.066406 119.113281 134.324219 132.820312 129.25 C 136.355469 127.941406 140.203125 126.773438 144.253906 125.757812 C 146.390625 132.847656 149.226562 140.257812 152.648438 147.75 C 149.226562 155.246094 146.390625 162.652344 144.253906 169.742188 C 140.203125 168.726562 136.355469 167.558594 132.820312 166.242188 Z M 144.742188 108.960938 C 144.671875 108.464844 144.597656 107.976562 144.53125 107.492188 C 148.125 106.519531 150.761719 103.257812 150.761719 99.359375 C 150.761719 95.445312 148.097656 92.167969 144.476562 91.207031 C 145.414062 86.273438 147.410156 82.78125 150.410156 81.113281 C 151.8125 80.332031 153.453125 79.929688 155.289062 79.929688 C 162.101562 79.929688 171.347656 85.230469 181.351562 94.851562 C 182.421875 95.890625 183.496094 96.976562 184.570312 98.105469 C 179.53125 103.695312 174.492188 110.160156 169.660156 117.34375 C 161.765625 118.011719 154.230469 119.125 147.269531 120.644531 C 146.171875 116.605469 145.324219 112.691406 144.742188 108.960938 Z M 214.753906 132.585938 C 212.707031 128.902344 210.582031 125.351562 208.421875 121.933594 C 214.804688 122.589844 220.910156 123.546875 226.617188 124.785156 C 224.871094 130.550781 222.636719 136.542969 220.015625 142.625 C 218.367188 139.28125 216.617188 135.929688 214.753906 132.585938 Z M 175.171875 116.953125 C 179.171875 111.246094 183.332031 105.96875 187.53125 101.285156 C 191.738281 105.96875 195.902344 111.246094 199.902344 116.953125 C 195.84375 116.71875 191.714844 116.59375 187.53125 116.59375 C 183.355469 116.59375 179.21875 116.71875 175.171875 116.953125 Z M 155.0625 142.625 C 152.425781 136.542969 150.203125 130.550781 148.453125 124.785156 C 154.167969 123.546875 160.269531 122.589844 166.660156 121.933594 C 164.488281 125.351562 162.367188 128.902344 160.3125 132.585938 C 158.457031 135.929688 156.707031 139.28125 155.0625 142.625 Z M 166.660156 173.566406 C 160.269531 172.910156 154.167969 171.957031 148.453125 170.726562 C 150.203125 164.949219 152.425781 158.964844 155.0625 152.878906 C 156.707031 156.226562 158.457031 159.578125 160.3125 162.917969 C 162.367188 166.597656 164.488281 170.148438 166.660156 173.566406 Z M 199.902344 178.554688 C 195.902344 184.257812 191.738281 189.539062 187.53125 194.222656 C 183.332031 189.539062 179.171875 184.257812 175.171875 178.554688 C 179.21875 178.789062 183.355469 178.90625 187.53125 178.90625 C 191.714844 178.90625 195.84375 178.789062 199.902344 178.554688 Z M 220.015625 152.878906 C 222.636719 158.964844 224.871094 164.949219 226.617188 170.726562 C 220.910156 171.957031 214.804688 172.910156 208.421875 173.566406 C 210.582031 170.148438 212.707031 166.597656 214.753906 162.917969 C 216.617188 159.578125 218.367188 156.226562 220.015625 152.878906 Z M 210.996094 160.832031 C 208.453125 165.382812 205.753906 169.8125 202.964844 174.050781 C 197.945312 174.425781 192.78125 174.613281 187.53125 174.613281 C 182.285156 174.613281 177.128906 174.425781 172.109375 174.050781 C 169.3125 169.8125 166.609375 165.382812 164.066406 160.832031 C 161.652344 156.476562 159.40625 152.101562 157.378906 147.75 C 159.40625 143.410156 161.652344 139.03125 164.066406 134.679688 C 166.609375 130.117188 169.316406 125.6875 172.109375 121.460938 C 177.128906 121.085938 182.285156 120.890625 187.53125 120.890625 C 192.78125 120.890625 197.945312 121.085938 202.964844 121.460938 C 205.753906 125.6875 208.453125 130.117188 210.996094 134.679688 C 213.425781 139.03125 215.65625 143.410156 217.695312 147.75 C 215.65625 152.101562 213.425781 156.476562 210.996094 160.832031 Z M 193.726562 94.851562 C 203.714844 85.230469 212.96875 79.929688 219.785156 79.929688 C 221.613281 79.929688 223.257812 80.332031 224.664062 81.113281 C 230.511719 84.371094 232.558594 94.515625 230.324219 108.960938 C 229.75 112.691406 228.898438 116.605469 227.8125 120.644531 C 220.835938 119.125 213.300781 118.011719 205.40625 117.34375 C 200.578125 110.160156 195.539062 103.695312 190.492188 98.105469 C 191.574219 96.976562 192.644531 95.890625 193.726562 94.851562 Z M 261.835938 135.417969 C 262.308594 134.371094 262.570312 133.21875 262.570312 131.996094 C 262.570312 127.339844 258.792969 123.5625 254.132812 123.5625 C 251.46875 123.5625 249.089844 124.800781 247.546875 126.742188 C 246.332031 126.214844 245.058594 125.714844 243.738281 125.226562 C 240.097656 123.875 236.167969 122.679688 231.984375 121.625 C 233.097656 117.480469 233.972656 113.453125 234.574219 109.617188 C 237.144531 93.058594 234.375 81.605469 226.757812 77.359375 C 224.699219 76.210938 222.351562 75.632812 219.785156 75.632812 C 210.734375 75.632812 199.207031 82.820312 187.53125 94.933594 C 175.867188 82.820312 164.328125 75.632812 155.289062 75.632812 C 152.726562 75.632812 150.367188 76.210938 148.3125 77.359375 C 143.984375 79.777344 141.21875 84.527344 140.109375 91.234375 C 136.53125 92.207031 133.894531 95.472656 133.894531 99.359375 C 133.894531 103.28125 136.574219 106.570312 140.203125 107.515625 C 140.289062 108.199219 140.386719 108.90625 140.496094 109.617188 C 141.09375 113.453125 141.960938 117.480469 143.082031 121.625 C 138.910156 122.679688 134.976562 123.875 131.332031 125.226562 C 115.617188 131.039062 106.953125 139.035156 106.953125 147.75 C 106.953125 156.464844 115.617188 164.464844 131.332031 170.28125 C 134.976562 171.625 138.910156 172.828125 143.082031 173.875 C 142.53125 175.929688 142.03125 177.960938 141.609375 179.945312 C 137.285156 180.320312 133.894531 183.933594 133.894531 188.34375 C 133.894531 192.039062 136.261719 195.167969 139.570312 196.3125 C 139.425781 207.253906 142.417969 214.867188 148.3125 218.148438 C 150.367188 219.289062 152.726562 219.871094 155.289062 219.871094 C 164.328125 219.871094 175.867188 212.675781 187.53125 200.578125 C 199.207031 212.675781 210.734375 219.871094 219.78125 219.871094 C 222.351562 219.871094 224.699219 219.289062 226.757812 218.148438 C 231.335938 215.59375 234.15625 210.425781 235.128906 203.113281 C 238.9375 202.304688 241.804688 198.914062 241.804688 194.867188 C 241.804688 190.664062 238.703125 187.175781 234.671875 186.550781 C 234.632812 186.328125 234.597656 186.109375 234.574219 185.882812 C 233.972656 182.046875 233.097656 178.019531 231.984375 173.875 C 236.160156 172.828125 240.097656 171.625 243.738281 170.28125 C 259.46875 164.464844 268.121094 156.464844 268.121094 147.75 C 268.121094 143.398438 265.953125 139.226562 261.835938 135.417969 " fill-opacity="1" fill-rule="nonzero"/><path fill="#10b981" d="M 187.53125 135.214844 C 180.617188 135.214844 175 140.828125 175 147.75 C 175 154.671875 180.617188 160.289062 187.53125 160.289062 C 194.464844 160.289062 200.066406 154.671875 200.066406 147.75 C 200.066406 140.828125 194.464844 135.214844 187.53125 135.214844 " fill-opacity="1" fill-rule="nonzero"/><g fill="#ffffe8" fill-opacity="1"><g transform="translate(29.616332, 283.799571)"><g><path d="M 37.46875 -38.0625 L 39.78125 -38.0625 C 40.332031 -38.0625 40.609375 -37.785156 40.609375 -37.234375 L 42.265625 0 L 40.875 0 L 39.234375 -36.859375 L 37.90625 -36.859375 L 25.4375 -3.8125 C 25.320312 -3.476562 25.082031 -3.3125 24.71875 -3.3125 L 22.40625 -3.3125 C 22.03125 -3.3125 21.789062 -3.476562 21.6875 -3.8125 L 9.21875 -36.859375 L 7.890625 -36.859375 L 6.234375 0 L 4.859375 0 L 6.515625 -37.234375 C 6.515625 -37.785156 6.789062 -38.0625 7.34375 -38.0625 L 9.65625 -38.0625 C 10.019531 -38.0625 10.257812 -37.898438 10.375 -37.578125 L 20.90625 -9.703125 C 21.125 -9.117188 21.445312 -8.253906 21.875 -7.109375 C 22.300781 -5.972656 22.625 -5.113281 22.84375 -4.53125 L 24.28125 -4.53125 L 26.265625 -9.828125 L 36.75 -37.578125 C 36.851562 -37.898438 37.09375 -38.0625 37.46875 -38.0625 Z M 37.46875 -38.0625 "/></g></g></g><g fill="#ffffe8" fill-opacity="1"><g transform="translate(78.378425, 283.799571)"><g><path d="M 31.390625 -38.0625 L 31.390625 -14.0625 C 31.390625 -8.726562 30.40625 -4.941406 28.4375 -2.703125 C 26.46875 -0.460938 23.128906 0.65625 18.421875 0.65625 C 13.679688 0.65625 10.328125 -0.460938 8.359375 -2.703125 C 6.390625 -4.941406 5.40625 -8.726562 5.40625 -14.0625 L 5.40625 -38.0625 L 6.78125 -38.0625 L 6.78125 -14.0625 C 6.78125 -9.132812 7.65625 -5.660156 9.40625 -3.640625 C 11.15625 -1.617188 14.160156 -0.609375 18.421875 -0.609375 C 22.648438 -0.609375 25.640625 -1.617188 27.390625 -3.640625 C 29.140625 -5.660156 30.015625 -9.132812 30.015625 -14.0625 L 30.015625 -38.0625 Z M 31.390625 -38.0625 "/></g></g></g><g fill="#ffffe8" fill-opacity="1"><g transform="translate(116.82557, 283.799571)"><g><path d="M 30.234375 0 L 28.6875 0 L 24.609375 -12.03125 C 23.429688 -15.414062 21.351562 -17.109375 18.375 -17.109375 C 13.332031 -17.109375 9.5625 -17.179688 7.0625 -17.328125 L 7.0625 0 L 5.6875 0 L 5.6875 -38.0625 C 8.625 -38.363281 12.6875 -38.515625 17.875 -38.515625 C 22 -38.515625 24.859375 -37.769531 26.453125 -36.28125 C 28.054688 -34.789062 28.859375 -31.96875 28.859375 -27.8125 C 28.859375 -24.425781 28.3125 -21.976562 27.21875 -20.46875 C 26.132812 -18.957031 24.34375 -18.019531 21.84375 -17.65625 L 21.84375 -17.4375 C 23.613281 -16.882812 25.015625 -15.132812 26.046875 -12.1875 Z M 7.0625 -18.375 L 17.875 -18.375 C 21.445312 -18.445312 23.929688 -19.132812 25.328125 -20.4375 C 26.722656 -21.75 27.421875 -24.207031 27.421875 -27.8125 C 27.421875 -31.488281 26.722656 -33.976562 25.328125 -35.28125 C 23.929688 -36.582031 21.445312 -37.234375 17.875 -37.234375 C 13.164062 -37.234375 9.5625 -37.195312 7.0625 -37.125 Z M 7.0625 -18.375 "/></g></g></g><g fill="#ffffe8" fill-opacity="1"><g transform="translate(151.963107, 283.799571)"><g><path d="M 25.703125 -13.90625 L 7.5625 -13.90625 L 2.53125 0 L 1.046875 0 L 14.734375 -37.578125 C 14.835938 -37.898438 15.078125 -38.0625 15.453125 -38.0625 L 17.828125 -38.0625 C 18.191406 -38.0625 18.425781 -37.898438 18.53125 -37.578125 L 32.21875 0 L 30.734375 0 Z M 25.265625 -15.109375 L 18.53125 -33.765625 L 17.4375 -36.859375 L 15.828125 -36.859375 L 14.734375 -33.765625 L 8 -15.109375 Z M 25.265625 -15.109375 "/></g></g></g><g fill="#ffffe8" fill-opacity="1"><g transform="translate(186.880001, 283.799571)"><g><path d="M 25.703125 -13.90625 L 7.5625 -13.90625 L 2.53125 0 L 1.046875 0 L 14.734375 -37.578125 C 14.835938 -37.898438 15.078125 -38.0625 15.453125 -38.0625 L 17.828125 -38.0625 C 18.191406 -38.0625 18.425781 -37.898438 18.53125 -37.578125 L 32.21875 0 L 30.734375 0 Z M 25.265625 -15.109375 L 18.53125 -33.765625 L 17.4375 -36.859375 L 15.828125 -36.859375 L 14.734375 -33.765625 L 8 -15.109375 Z M 25.265625 -15.109375 "/></g></g></g><g fill="#ffffe8" fill-opacity="1"><g transform="translate(221.796907, 283.799571)"><g><path d="M 12.359375 -38.0625 L 12.359375 -6.34375 C 12.359375 -1.851562 10.113281 0.367188 5.625 0.328125 C 4.59375 0.328125 3.414062 0.21875 2.09375 0 L 2.265625 -0.875 L 5.46875 -0.875 C 9.144531 -0.875 10.984375 -2.71875 10.984375 -6.40625 L 10.984375 -38.0625 Z M 12.359375 -38.0625 "/></g></g></g><g fill="#ffffe8" fill-opacity="1"><g transform="translate(241.324119, 283.799571)"><g><path d="M 25.703125 -13.90625 L 7.5625 -13.90625 L 2.53125 0 L 1.046875 0 L 14.734375 -37.578125 C 14.835938 -37.898438 15.078125 -38.0625 15.453125 -38.0625 L 17.828125 -38.0625 C 18.191406 -38.0625 18.425781 -37.898438 18.53125 -37.578125 L 32.21875 0 L 30.734375 0 Z M 25.265625 -15.109375 L 18.53125 -33.765625 L 17.4375 -36.859375 L 15.828125 -36.859375 L 14.734375 -33.765625 L 8 -15.109375 Z M 25.265625 -15.109375 "/></g></g></g><g fill="#ffffe8" fill-opacity="1"><g transform="translate(276.241026, 283.799571)"><g><path d="M 28.296875 -1.328125 L 28.640625 -0.328125 C 25.734375 0.328125 22.273438 0.65625 18.265625 0.65625 C 13.035156 0.65625 9.378906 -0.800781 7.296875 -3.71875 C 5.222656 -6.644531 4.1875 -11.75 4.1875 -19.03125 C 4.1875 -26.3125 5.222656 -31.414062 7.296875 -34.34375 C 9.378906 -37.269531 13.035156 -38.734375 18.265625 -38.734375 C 21.941406 -38.734375 25.140625 -38.421875 27.859375 -37.796875 L 27.53125 -36.796875 C 24.769531 -37.242188 21.679688 -37.46875 18.265625 -37.46875 C 13.554688 -37.46875 10.269531 -36.101562 8.40625 -33.375 C 6.550781 -30.65625 5.625 -25.875 5.625 -19.03125 C 5.625 -12.1875 6.550781 -7.40625 8.40625 -4.6875 C 10.269531 -1.96875 13.554688 -0.609375 18.265625 -0.609375 C 22.203125 -0.609375 25.546875 -0.847656 28.296875 -1.328125 Z M 28.296875 -1.328125 "/></g></g></g><g fill="#ffffe8" fill-opacity="1"><g transform="translate(308.84119, 283.799571)"><g><path d="M 7.296875 -34.34375 C 9.378906 -37.269531 13.03125 -38.734375 18.25 -38.734375 C 23.476562 -38.734375 27.128906 -37.269531 29.203125 -34.34375 C 31.285156 -31.414062 32.328125 -26.3125 32.328125 -19.03125 C 32.328125 -11.75 31.285156 -6.644531 29.203125 -3.71875 C 27.128906 -0.800781 23.476562 0.65625 18.25 0.65625 C 13.03125 0.65625 9.378906 -0.800781 7.296875 -3.71875 C 5.222656 -6.644531 4.1875 -11.75 4.1875 -19.03125 C 4.1875 -26.3125 5.222656 -31.414062 7.296875 -34.34375 Z M 28.109375 -33.375 C 26.253906 -36.101562 22.972656 -37.46875 18.265625 -37.46875 C 13.554688 -37.46875 10.269531 -36.101562 8.40625 -33.375 C 6.550781 -30.65625 5.625 -25.875 5.625 -19.03125 C 5.625 -12.1875 6.550781 -7.40625 8.40625 -4.6875 C 10.269531 -1.96875 13.554688 -0.609375 18.265625 -0.609375 C 22.972656 -0.609375 26.253906 -1.96875 28.109375 -4.6875 C 29.960938 -7.40625 30.890625 -12.1875 30.890625 -19.03125 C 30.890625 -25.875 29.960938 -30.65625 28.109375 -33.375 Z M 28.109375 -33.375 "/></g></g></g><g fill="#10b981" fill-opacity="1"><g transform="translate(105.754768, 318.477869)"><g><path d="M 10.90625 -1.59375 L 11.09375 -0.234375 C 9.9375 0.0859375 8.535156 0.25 6.890625 0.25 C 4.828125 0.25 3.375 -0.300781 2.53125 -1.40625 C 1.6875 -2.519531 1.265625 -4.4375 1.265625 -7.15625 C 1.265625 -9.882812 1.6875 -11.800781 2.53125 -12.90625 C 3.375 -14.019531 4.828125 -14.578125 6.890625 -14.578125 C 8.367188 -14.578125 9.671875 -14.4375 10.796875 -14.15625 L 10.609375 -12.765625 C 9.367188 -12.890625 8.128906 -12.953125 6.890625 -12.953125 C 5.492188 -12.953125 4.53125 -12.53125 4 -11.6875 C 3.46875 -10.851562 3.203125 -9.34375 3.203125 -7.15625 C 3.203125 -4.976562 3.46875 -3.46875 4 -2.625 C 4.53125 -1.789062 5.492188 -1.375 6.890625 -1.375 C 8.492188 -1.375 9.832031 -1.445312 10.90625 -1.59375 Z M 10.90625 -1.59375 "/></g></g></g><g fill="#10b981" fill-opacity="1"><g transform="translate(119.460899, 318.477869)"><g><path d="M 9.40625 -4.484375 L 3.515625 -4.484375 L 2.09375 0 L 0.203125 0 L 4.8125 -13.828125 C 4.894531 -14.160156 5.125 -14.328125 5.5 -14.328125 L 7.40625 -14.328125 C 7.78125 -14.328125 8.007812 -14.160156 8.09375 -13.828125 L 12.703125 0 L 10.8125 0 Z M 8.90625 -6.0625 L 7.109375 -11.75 C 6.984375 -12.113281 6.863281 -12.503906 6.75 -12.921875 L 6.171875 -12.921875 L 5.8125 -11.75 L 4 -6.0625 Z M 8.90625 -6.0625 "/></g></g></g><g fill="#10b981" fill-opacity="1"><g transform="translate(134.246838, 318.477869)"><g><path d="M 9.40625 -4.484375 L 3.515625 -4.484375 L 2.09375 0 L 0.203125 0 L 4.8125 -13.828125 C 4.894531 -14.160156 5.125 -14.328125 5.5 -14.328125 L 7.40625 -14.328125 C 7.78125 -14.328125 8.007812 -14.160156 8.09375 -13.828125 L 12.703125 0 L 10.8125 0 Z M 8.90625 -6.0625 L 7.109375 -11.75 C 6.984375 -12.113281 6.863281 -12.503906 6.75 -12.921875 L 6.171875 -12.921875 L 5.8125 -11.75 L 4 -6.0625 Z M 8.90625 -6.0625 "/></g></g></g><g fill="#10b981" fill-opacity="1"><g transform="translate(149.032778, 318.477869)"><g><path d="M 19.046875 -14.328125 L 16.140625 -0.546875 C 16.035156 -0.179688 15.789062 0 15.40625 0 L 13.328125 0 C 12.929688 0 12.695312 -0.1875 12.625 -0.5625 L 10.375 -11.34375 C 10.300781 -11.695312 10.191406 -12.234375 10.046875 -12.953125 L 9.609375 -12.953125 L 9.296875 -11.34375 L 7.078125 -0.5625 C 6.984375 -0.1875 6.742188 0 6.359375 0 L 4.25 0 C 4.070312 0 3.914062 -0.0507812 3.78125 -0.15625 C 3.65625 -0.257812 3.578125 -0.390625 3.546875 -0.546875 L 0.640625 -14.328125 L 2.578125 -14.328125 L 4.8125 -3.15625 C 4.84375 -3.03125 4.941406 -2.441406 5.109375 -1.390625 L 5.578125 -1.390625 C 5.691406 -2.046875 5.804688 -2.632812 5.921875 -3.15625 L 8.140625 -13.71875 C 8.210938 -14.125 8.445312 -14.328125 8.84375 -14.328125 L 10.84375 -14.328125 C 11.21875 -14.328125 11.453125 -14.125 11.546875 -13.71875 L 13.765625 -3.15625 C 13.898438 -2.476562 14 -1.890625 14.0625 -1.390625 L 14.578125 -1.390625 C 14.703125 -2.222656 14.789062 -2.804688 14.84375 -3.140625 L 17.109375 -14.328125 Z M 19.046875 -14.328125 "/></g></g></g><g fill="#10b981" fill-opacity="1"><g transform="translate(170.58833, 318.477869)"><g><path d="M 3.640625 0 L 1.8125 0 L 1.8125 -14.328125 L 3.640625 -14.328125 Z M 3.640625 0 "/></g></g></g><g fill="#10b981" fill-opacity="1"><g transform="translate(177.898632, 318.477869)"><g><path d="M 6.8125 -5.03125 L 6.8125 0 L 4.984375 0 L 4.984375 -5.046875 L 0.234375 -14.328125 L 2.1875 -14.328125 L 5.1875 -8.28125 C 5.351562 -7.945312 5.566406 -7.410156 5.828125 -6.671875 L 5.984375 -6.671875 C 6.203125 -7.273438 6.414062 -7.804688 6.625 -8.265625 L 9.640625 -14.328125 L 11.5625 -14.328125 Z M 6.8125 -5.03125 "/></g></g></g><g fill="#10b981" fill-opacity="1"><g transform="translate(191.583991, 318.477869)"><g><path d="M 9.40625 -4.484375 L 3.515625 -4.484375 L 2.09375 0 L 0.203125 0 L 4.8125 -13.828125 C 4.894531 -14.160156 5.125 -14.328125 5.5 -14.328125 L 7.40625 -14.328125 C 7.78125 -14.328125 8.007812 -14.160156 8.09375 -13.828125 L 12.703125 0 L 10.8125 0 Z M 8.90625 -6.0625 L 7.109375 -11.75 C 6.984375 -12.113281 6.863281 -12.503906 6.75 -12.921875 L 6.171875 -12.921875 L 5.8125 -11.75 L 4 -6.0625 Z M 8.90625 -6.0625 "/></g></g></g><g fill="#10b981" fill-opacity="1"><g transform="translate(206.369934, 318.477869)"><g><path d="M 12.0625 -14.328125 L 12.0625 0 L 10.234375 0 L 10.234375 -6.875 L 3.640625 -6.875 L 3.640625 0 L 1.8125 0 L 1.8125 -14.328125 L 3.640625 -14.328125 L 3.640625 -8.453125 L 10.234375 -8.453125 L 10.234375 -14.328125 Z M 12.0625 -14.328125 "/></g></g></g><g fill="#10b981" fill-opacity="1"><g transform="translate(222.111098, 318.477869)"><g><path d="M 9.40625 -4.484375 L 3.515625 -4.484375 L 2.09375 0 L 0.203125 0 L 4.8125 -13.828125 C 4.894531 -14.160156 5.125 -14.328125 5.5 -14.328125 L 7.40625 -14.328125 C 7.78125 -14.328125 8.007812 -14.160156 8.09375 -13.828125 L 12.703125 0 L 10.8125 0 Z M 8.90625 -6.0625 L 7.109375 -11.75 C 6.984375 -12.113281 6.863281 -12.503906 6.75 -12.921875 L 6.171875 -12.921875 L 5.8125 -11.75 L 4 -6.0625 Z M 8.90625 -6.0625 "/></g></g></g><g fill="#10b981" fill-opacity="1"><g transform="translate(236.897035, 318.477869)"><g/></g></g><g fill="#10b981" fill-opacity="1"><g transform="translate(243.397474, 318.477869)"><g><path d="M 10.359375 -12.796875 L 4.984375 -12.796875 C 4.492188 -12.796875 4.140625 -12.6875 3.921875 -12.46875 C 3.703125 -12.25 3.59375 -11.898438 3.59375 -11.421875 L 3.59375 -8.09375 L 9.578125 -8.09375 L 9.578125 -6.625 L 3.59375 -6.625 L 3.59375 0 L 1.765625 0 L 1.765625 -11.78125 C 1.765625 -12.59375 2.015625 -13.222656 2.515625 -13.671875 C 3.015625 -14.117188 3.6875 -14.34375 4.53125 -14.34375 C 7.257812 -14.34375 9.238281 -14.296875 10.46875 -14.203125 Z M 10.359375 -12.796875 "/></g></g></g><g fill="#10b981" fill-opacity="1"><g transform="translate(256.459862, 318.477869)"><g><path d="M 11.859375 -3.703125 L 10.015625 -3.515625 L 10.015625 0 L 8.28125 0 L 8.28125 -3.515625 L 2.34375 -3.515625 C 1.757812 -3.515625 1.328125 -3.75 1.046875 -4.21875 C 0.765625 -4.6875 0.738281 -5.191406 0.96875 -5.734375 L 5.046875 -14.328125 L 6.859375 -14.328125 L 2.84375 -5.859375 C 2.726562 -5.578125 2.722656 -5.363281 2.828125 -5.21875 C 2.929688 -5.070312 3.109375 -5 3.359375 -5 L 8.28125 -5 L 8.28125 -9.21875 L 8.59375 -11.59375 L 10.015625 -11.59375 L 10.015625 -5 L 11.859375 -5 Z M 11.859375 -3.703125 "/></g></g></g></svg>